<svg width="25" height="25" viewBox="0 0 25 25" fill="none" xmlns="http://www.w3.org/2000/svg">
<path d="M19.8987 24.9999C19.7196 24.9999 19.5408 24.9514 19.383 24.8546L12.5042 20.6361C12.5016 20.6345 12.4984 20.6345 12.4959 20.6361L5.61705 24.8546C5.31299 25.0411 4.93072 25.0487 4.61949 24.8744C4.30826 24.7001 4.1149 24.3704 4.1149 24.0137V0.986474C4.1149 0.442529 4.55743 0 5.10132 0H19.8987C20.4426 0 20.8851 0.442529 20.8851 0.986474V9.50146C20.8851 9.77168 20.6661 9.99072 20.3959 9.99072C20.1257 9.99072 19.9066 9.77168 19.9066 9.50146V0.986474C19.9066 0.98208 19.9031 0.978516 19.8987 0.978516H5.10132C5.09693 0.978516 5.09341 0.98208 5.09341 0.986474V24.0137C5.09478 24.0194 5.09991 24.0223 5.10245 24.0224L11.9843 19.802C12.3024 19.6069 12.6976 19.6069 13.0157 19.802L19.8945 24.0205C19.9003 24.0225 19.9053 24.0194 19.9067 24.0173L19.9066 13.8922C19.9066 13.622 20.1257 13.403 20.3959 13.403C20.6661 13.403 20.8852 13.622 20.8852 13.8922V24.0137C20.8852 24.3704 20.6918 24.7001 20.3806 24.8744C20.2309 24.9582 20.0647 24.9999 19.8987 24.9999Z" fill="black"/>
<path d="M20.3959 12.1839C20.6661 12.1839 20.8851 11.9649 20.8851 11.6946C20.8851 11.4244 20.6661 11.2054 20.3959 11.2054C20.1257 11.2054 19.9066 11.4244 19.9066 11.6946C19.9066 11.9649 20.1257 12.1839 20.3959 12.1839Z" fill="black"/>
</svg>
