<svg width="29" height="29" viewBox="0 0 29 29" fill="none" xmlns="http://www.w3.org/2000/svg">
<path d="M14.5 27.2441C14.3001 27.2441 14.1009 27.1745 13.9408 27.0342C12.7045 25.9531 11.5289 24.9509 10.4229 24.0083C4.18104 18.6891 0 15.1745 0 10.0545C0 5.32354 3.34389 1.75586 7.70312 1.75586C11.1389 1.75586 13.3442 4.15618 14.5 6.31753C15.6558 4.15618 17.8611 1.75586 21.2969 1.75586C25.6561 1.75586 29 5.32354 29 10.0545C29 15.1746 24.819 18.6891 18.5771 24.0083C17.4711 24.9509 16.2955 25.9531 15.0592 27.0342C14.8991 27.1745 14.6999 27.2441 14.5 27.2441Z" fill="#FD3018"/>
<path d="M15.0592 27.0342C16.2955 25.9531 17.4711 24.9509 18.5771 24.0083C24.819 18.6891 29 15.1745 29 10.0545C29 5.32354 25.6561 1.75586 21.2969 1.75586C17.8611 1.75586 15.6558 4.15618 14.5 6.31753V27.2441C14.6999 27.2441 14.8991 27.1745 15.0592 27.0342Z" fill="#E61E14"/>
</svg>
