<svg width="37" height="37" viewBox="0 0 37 37" fill="none" xmlns="http://www.w3.org/2000/svg">
<g clip-path="url(#clip0)">
<path d="M18.5 0C14.8411 0 11.2643 1.08501 8.22196 3.11781C5.17965 5.15062 2.80846 8.03992 1.40824 11.4204C0.0080157 14.8008 -0.358346 18.5205 0.355481 22.1092C1.06931 25.6978 2.83126 28.9942 5.41853 31.5815C8.0058 34.1687 11.3022 35.9307 14.8908 36.6445C18.4795 37.3584 22.1992 36.992 25.5797 35.5918C28.9601 34.1916 31.8494 31.8204 33.8822 28.778C35.915 25.7357 37 22.159 37 18.5C36.9945 13.5952 35.0436 8.89284 31.5754 5.42461C28.1072 1.95638 23.4048 0.00550863 18.5 0V0ZM18.5 35.9883C15.0412 35.9883 11.66 34.9626 8.78404 33.041C5.90811 31.1193 3.66659 28.388 2.34294 25.1925C1.0193 21.9969 0.67297 18.4806 1.34776 15.0882C2.02255 11.6958 3.68815 8.5797 6.13393 6.13392C8.57971 3.68814 11.6958 2.02254 15.0882 1.34775C18.4806 0.672962 21.9969 1.01929 25.1925 2.34293C28.3881 3.66658 31.1193 5.9081 33.041 8.78403C34.9626 11.66 35.9883 15.0411 35.9883 18.5C35.983 23.1366 34.1388 27.5817 30.8603 30.8603C27.5817 34.1388 23.1366 35.983 18.5 35.9883ZM34.6875 18.5C34.6875 21.7016 33.7381 24.8313 31.9594 27.4933C30.1807 30.1553 27.6526 32.2301 24.6947 33.4553C21.7368 34.6805 18.4821 35.0011 15.342 34.3765C12.2019 33.7519 9.31758 32.2102 7.05372 29.9463C4.78985 27.6824 3.24814 24.7981 2.62355 21.658C1.99895 18.518 2.31951 15.2632 3.54471 12.3053C4.7699 9.34743 6.84469 6.81929 9.50671 5.04059C12.1687 3.26188 15.2984 2.3125 18.5 2.3125C18.6342 2.3125 18.7628 2.3658 18.8577 2.46066C18.9526 2.55553 19.0059 2.6842 19.0059 2.81836C19.0059 2.95252 18.9526 3.08119 18.8577 3.17606C18.7628 3.27092 18.6342 3.32422 18.5 3.32422C14.6421 3.32628 10.93 4.79831 8.11915 7.44073C5.30829 10.0831 3.60997 13.6973 3.36982 17.5477C3.12968 21.3981 4.36576 25.1954 6.8265 28.1666C9.28724 31.1378 12.7877 33.0596 16.6154 33.541C20.4431 34.0224 24.3105 33.0272 27.4303 30.7578C30.5501 28.4885 32.688 25.1156 33.4087 21.3256C34.1295 17.5357 33.379 13.6135 31.31 10.3574C29.241 7.10121 26.0089 4.75584 22.2717 3.79857C22.206 3.7833 22.144 3.75505 22.0894 3.71548C22.0348 3.67592 21.9886 3.62583 21.9536 3.56817C21.9186 3.51051 21.8955 3.44644 21.8856 3.37972C21.8757 3.313 21.8793 3.24498 21.8961 3.17965C21.9129 3.11432 21.9425 3.05301 21.9833 2.99931C22.0241 2.94561 22.0753 2.90061 22.1337 2.86695C22.1922 2.83329 22.2568 2.81165 22.3237 2.80331C22.3906 2.79497 22.4585 2.80008 22.5235 2.81836C26.0042 3.71101 29.0888 5.73662 31.2912 8.5759C33.4936 11.4152 34.6885 14.9067 34.6875 18.5ZM27.6196 12.9668L16.2468 24.3391C16.1998 24.3861 16.1441 24.4234 16.0827 24.4488C16.0213 24.4743 15.9555 24.4874 15.8891 24.4874C15.8226 24.4874 15.7568 24.4743 15.6954 24.4488C15.6341 24.4234 15.5783 24.3861 15.5313 24.3391L9.06385 17.8719C8.97173 17.7764 8.92076 17.6487 8.92194 17.516C8.92312 17.3834 8.97635 17.2565 9.07016 17.1627C9.16397 17.069 9.29085 17.0158 9.42349 17.0147C9.55612 17.0135 9.6839 17.0646 9.77928 17.1567L15.8892 23.2666L26.9042 12.2516C26.9996 12.1595 27.1274 12.1084 27.26 12.1096C27.3926 12.1107 27.5195 12.1639 27.6133 12.2576C27.7071 12.3514 27.7604 12.4783 27.7616 12.6109C27.7627 12.7435 27.7118 12.8713 27.6196 12.9668ZM21.6866 22.2723C21.7336 22.3192 21.7709 22.3749 21.7964 22.4363C21.8218 22.4976 21.8349 22.5634 21.8349 22.6298C21.8349 22.6963 21.8218 22.762 21.7964 22.8234C21.7709 22.8847 21.7336 22.9405 21.6866 22.9874L20.8194 23.8546C20.7725 23.9016 20.7167 23.9388 20.6554 23.9642C20.594 23.9896 20.5283 24.0027 20.4619 24.0027C20.3955 24.0027 20.3297 23.9896 20.2684 23.9642C20.207 23.9388 20.1513 23.9016 20.1043 23.8546C20.0574 23.8076 20.0201 23.7519 19.9947 23.6905C19.9693 23.6292 19.9562 23.5634 19.9562 23.497C19.9562 23.4306 19.9693 23.3649 19.9947 23.3035C20.0201 23.2422 20.0574 23.1864 20.1043 23.1395L20.9715 22.2723C21.0184 22.2253 21.0742 22.188 21.1355 22.1625C21.1969 22.1371 21.2626 22.124 21.3291 22.124C21.3955 22.124 21.4613 22.1371 21.5226 22.1625C21.584 22.188 21.6397 22.2253 21.6866 22.2723ZM22.9949 20.964C22.9479 20.917 22.9106 20.8613 22.8852 20.7999C22.8597 20.7386 22.8467 20.6728 22.8467 20.6064C22.8467 20.54 22.8597 20.4742 22.8852 20.4129C22.9106 20.3515 22.9479 20.2958 22.9949 20.2488L30.2255 13.0179L26.8539 9.64515L16.2468 20.2517C16.1501 20.3432 16.0221 20.3942 15.8891 20.3942C15.756 20.3942 15.628 20.3432 15.5313 20.2517L9.83045 14.5502L6.45766 17.9219L15.8892 27.3549L18.0809 25.1629C18.1757 25.0681 18.3043 25.0148 18.4384 25.0148C18.5726 25.0148 18.7012 25.0681 18.796 25.1629C18.8908 25.2577 18.9441 25.3863 18.9441 25.5205C18.9441 25.6546 18.8908 25.7832 18.796 25.878L16.2468 28.4279C16.1518 28.5226 16.0232 28.5758 15.8891 28.5758C15.7549 28.5758 15.6263 28.5226 15.5313 28.4279L5.38524 18.2818C5.33824 18.2348 5.30095 18.1791 5.27551 18.1177C5.25006 18.0564 5.23697 17.9906 5.23697 17.9242C5.23697 17.8578 5.25006 17.792 5.27551 17.7306C5.30095 17.6693 5.33824 17.6135 5.38524 17.5666L9.47259 13.4773C9.56922 13.3858 9.69723 13.3348 9.8303 13.3348C9.96337 13.3348 10.0914 13.3858 10.188 13.4773L15.8892 19.1787L26.4952 8.57215C26.5918 8.48066 26.7198 8.42968 26.8529 8.42968C26.986 8.42968 27.114 8.48066 27.2106 8.57215L31.2985 12.6609C31.3455 12.7079 31.3828 12.7636 31.4083 12.825C31.4337 12.8863 31.4468 12.9521 31.4468 13.0185C31.4468 13.0849 31.4337 13.1507 31.4083 13.2121C31.3828 13.2734 31.3455 13.3291 31.2985 13.3761L23.7101 20.964C23.6631 21.011 23.6074 21.0483 23.546 21.0737C23.4847 21.0991 23.4189 21.1122 23.3525 21.1122C23.2861 21.1122 23.2203 21.0991 23.159 21.0737C23.0976 21.0483 23.0419 21.011 22.9949 20.964Z" fill="url(#paint0_linear)"/>
</g>
<defs>
<linearGradient id="paint0_linear" x1="31.5755" y1="31.5746" x2="5.42456" y2="5.42368" gradientUnits="userSpaceOnUse">
<stop stop-color="#FF3377"/>
<stop offset="1" stop-color="#FFBF2D"/>
</linearGradient>
<clipPath id="clip0">
<rect width="37" height="37" fill="white"/>
</clipPath>
</defs>
</svg>
