<svg width="81" height="81" viewBox="0 0 81 81" fill="none" xmlns="http://www.w3.org/2000/svg">
<g clip-path="url(#clip0)">
<path d="M40.5 81C62.8675 81 81 62.8675 81 40.5C81 18.1325 62.8675 0 40.5 0C18.1325 0 0 18.1325 0 40.5C0 62.8675 18.1325 81 40.5 81Z" fill="#039BE5"/>
<path d="M18.5321 39.6225L57.5809 24.5666C59.3933 23.9119 60.9761 25.0087 60.3889 27.7492L60.3923 27.7459L53.7435 59.0693C53.2508 61.29 51.9311 61.83 50.085 60.7838L39.96 53.3216L35.0764 58.0264C34.5364 58.5664 34.0808 59.022 33.0345 59.022L33.7534 48.7181L52.5184 31.7655C53.3351 31.0466 52.3361 30.6416 51.2595 31.3571L28.0699 45.9574L18.0731 42.8389C15.903 42.1504 15.8558 40.6687 18.5321 39.6225Z" fill="white"/>
</g>
<defs>
<clipPath id="clip0">
<rect width="81" height="81" fill="white"/>
</clipPath>
</defs>
</svg>
